<svg width="14" height="15" viewBox="0 0 14 15" fill="none" xmlns="http://www.w3.org/2000/svg">
<path d="M13 8.07709H8V13.0771C8 13.3423 7.89464 13.5967 7.70711 13.7842C7.51957 13.9717 7.26522 14.0771 7 14.0771C6.73478 14.0771 6.48043 13.9717 6.29289 13.7842C6.10536 13.5967 6 13.3423 6 13.0771V8.07709H1C0.734784 8.07709 0.48043 7.97173 0.292893 7.78419C0.105357 7.59666 0 7.3423 0 7.07709C0 6.81187 0.105357 6.55752 0.292893 6.36998C0.48043 6.18244 0.734784 6.07709 1 6.07709H6V1.07709C6 0.811871 6.10536 0.557517 6.29289 0.36998C6.48043 0.182444 6.73478 0.0770874 7 0.0770874C7.26522 0.0770874 7.51957 0.182444 7.70711 0.36998C7.89464 0.557517 8 0.811871 8 1.07709V6.07709H13C13.2652 6.07709 13.5196 6.18244 13.7071 6.36998C13.8946 6.55752 14 6.81187 14 7.07709C14 7.3423 13.8946 7.59666 13.7071 7.78419C13.5196 7.97173 13.2652 8.07709 13 8.07709Z" fill="#06579C"/>
</svg>
