<svg width="50" height="51" viewBox="0 0 50 51" fill="none" xmlns="http://www.w3.org/2000/svg">
<rect y="0.0791016" width="50" height="50" rx="25" fill="black" fill-opacity="0.05"/>
<path d="M39.6985 17.8266L36.136 15.0816C35.8939 14.9262 35.6307 14.8065 35.3545 14.7261C35.0796 14.6364 34.7931 14.5869 34.504 14.5791H24.25L25.4515 22.0791H34.504C34.75 22.0791 35.0575 22.0236 35.353 21.9321C35.6485 21.8406 35.9335 21.7146 36.1345 21.5781L39.697 18.8301C39.8995 18.6936 40 18.5121 40 18.3291C40 18.1461 39.8995 17.9646 39.6985 17.8266ZM22.75 11.5791H21.25C21.0511 11.5791 20.8603 11.6581 20.7197 11.7988C20.579 11.9394 20.5 12.1302 20.5 12.3291V17.5791H15.496C15.247 17.5791 14.941 17.6346 14.6455 17.7276C14.3485 17.8176 14.065 17.9421 13.864 18.0816L10.3015 20.8266C10.099 20.9631 10 21.1461 10 21.3291C10 21.5106 10.099 21.6921 10.3015 21.8316L13.864 24.5796C14.065 24.7161 14.3485 24.8421 14.6455 24.9321C14.941 25.0236 15.247 25.0791 15.496 25.0791H20.5V37.8291C20.5 38.028 20.579 38.2188 20.7197 38.3594C20.8603 38.5001 21.0511 38.5791 21.25 38.5791H22.75C22.9489 38.5791 23.1397 38.5001 23.2803 38.3594C23.421 38.2188 23.5 38.028 23.5 37.8291V12.3291C23.5 12.1302 23.421 11.9394 23.2803 11.7988C23.1397 11.6581 22.9489 11.5791 22.75 11.5791Z" fill="black"/>
</svg>
