<svg width="52" height="52" viewBox="0 0 52 52" fill="none" xmlns="http://www.w3.org/2000/svg">
<path d="M32.7342 45.6924C32.8226 45.968 32.6666 46.2592 32.3962 46.3424C30.3318 46.9924 28.1842 47.32 26.0002 47.32C19.235 47.32 13.021 44.2156 8.94938 38.7972C6.15698 35.0844 4.68018 30.6592 4.68018 26C4.68018 19.7548 7.35298 13.9412 12.0486 9.87999H8.32018C8.03418 9.87999 7.80018 9.64599 7.80018 9.35999C7.80018 9.07399 8.03418 8.83999 8.32018 8.83999H13.5202C13.8062 8.83999 14.0402 9.07399 14.0402 9.35999V14.56C14.0402 14.846 13.8062 15.08 13.5202 15.08C13.2342 15.08 13.0002 14.846 13.0002 14.56V10.4468C8.36698 14.3156 5.72018 19.942 5.72018 26C5.72018 30.4304 7.12418 34.6424 9.78138 38.1732C13.6502 43.3264 19.5626 46.28 26.0002 46.28C28.075 46.28 30.1238 45.968 32.0842 45.3492C32.3598 45.266 32.651 45.4168 32.7342 45.6924ZM43.6802 42.12H39.9518C44.6474 38.0588 47.3202 32.2452 47.3202 26C47.3202 21.3408 45.8434 16.9156 43.051 13.2028C38.9794 7.78439 32.7654 4.67999 26.0002 4.67999C23.8162 4.67999 21.6686 5.00759 19.6042 5.65759C19.3286 5.74599 19.1778 6.03719 19.2662 6.30759C19.3494 6.58319 19.6406 6.73399 19.9162 6.64559C21.8766 6.03199 23.9254 5.71999 26.0002 5.71999C32.4378 5.71999 38.3502 8.67359 42.219 13.8268C44.8762 17.3576 46.2802 21.5696 46.2802 26C46.2802 32.058 43.6334 37.6844 39.0002 41.5532V37.44C39.0002 37.154 38.7662 36.92 38.4802 36.92C38.1942 36.92 37.9602 37.154 37.9602 37.44V42.64C37.9602 42.926 38.1942 43.16 38.4802 43.16H43.6802C43.9662 43.16 44.2002 42.926 44.2002 42.64C44.2002 42.354 43.9662 42.12 43.6802 42.12ZM31.7202 26C31.7202 29.1564 29.1566 31.72 26.0002 31.72C22.8438 31.72 20.2802 29.1564 20.2802 26C20.2802 22.8436 22.8438 20.28 26.0002 20.28C29.1566 20.28 31.7202 22.8436 31.7202 26ZM30.6802 26C30.6802 23.4208 28.5794 21.32 26.0002 21.32C23.421 21.32 21.3202 23.4208 21.3202 26C21.3202 28.5792 23.421 30.68 26.0002 30.68C28.5794 30.68 30.6802 28.5792 30.6802 26ZM36.9306 32.9524C37.3778 33.67 37.2738 34.5852 36.6758 35.1832L35.1782 36.6808C34.5802 37.2788 33.665 37.3828 32.9474 36.9356L31.3562 35.932C31.1378 35.7968 30.8726 35.776 30.649 35.88C30.3422 36.0256 30.025 36.1556 29.7026 36.2752C29.4738 36.3584 29.297 36.5612 29.2398 36.8108L28.8134 38.6412C28.6262 39.468 27.9034 40.04 27.061 40.04H24.9394C24.097 40.04 23.3742 39.468 23.1818 38.6412L22.7554 36.8108C22.6982 36.5612 22.5214 36.3584 22.2926 36.2752C21.9702 36.1608 21.6478 36.0256 21.341 35.88C21.1174 35.776 20.8522 35.7916 20.6338 35.932L19.0426 36.9304C18.325 37.3776 17.4098 37.2736 16.8118 36.6756L15.3142 35.1832C14.7162 34.5852 14.6122 33.67 15.0594 32.9524L16.0526 31.356C16.1878 31.1376 16.2086 30.8724 16.1046 30.6488C15.959 30.3368 15.8238 30.0196 15.7094 29.7024C15.6262 29.4736 15.4234 29.2968 15.1738 29.2396L13.3434 28.8184C12.5322 28.626 11.9602 27.9032 11.9602 27.0608V24.9392C11.9602 24.0968 12.5322 23.374 13.359 23.1816L15.1894 22.7604C15.4442 22.7032 15.6418 22.5316 15.725 22.2976C15.8394 21.9752 15.9746 21.658 16.1202 21.346C16.2242 21.1276 16.2034 20.8572 16.0682 20.6388L15.0698 19.0476C14.6226 18.33 14.7266 17.4148 15.3246 16.8168L16.817 15.3244C17.415 14.7264 18.3302 14.6224 19.0478 15.0696L20.639 16.068C20.8574 16.2032 21.1226 16.224 21.3462 16.12C21.653 15.9744 21.9754 15.8392 22.2978 15.7248C22.5266 15.6416 22.7034 15.4388 22.7606 15.1892L23.187 13.3536C23.3742 12.532 24.097 11.96 24.9394 11.96H27.061C27.9034 11.96 28.6262 12.532 28.8186 13.3588L29.245 15.1892C29.3022 15.4388 29.479 15.6416 29.7078 15.7248C30.0302 15.8392 30.3474 15.9744 30.6542 16.12C30.8778 16.224 31.1378 16.2032 31.3614 16.068L32.9578 15.0748C33.6754 14.6276 34.5906 14.7316 35.1886 15.3296L36.6862 16.8272C37.2842 17.4252 37.3882 18.3404 36.941 19.058L35.9322 20.644C35.797 20.8624 35.7762 21.1328 35.8802 21.3512C36.0258 21.658 36.161 21.9804 36.2754 22.3028C36.3586 22.5316 36.5562 22.7084 36.811 22.7656L38.6414 23.1868C39.4682 23.374 40.0402 24.0968 40.0402 24.9392V27.0608C40.0402 27.9032 39.4682 28.626 38.6414 28.8184L36.811 29.2396C36.5614 29.2968 36.3586 29.4736 36.2754 29.7024C36.161 30.0196 36.031 30.342 35.8802 30.6488C35.7762 30.8724 35.7918 31.1376 35.9322 31.356L36.9306 32.9524ZM36.0466 33.5036L35.0482 31.9072C34.7206 31.3872 34.6842 30.7476 34.939 30.2068C35.069 29.926 35.1886 29.64 35.2926 29.354C35.4954 28.7872 35.9738 28.366 36.5718 28.2308L38.4022 27.8096C38.7506 27.7316 38.995 27.4248 38.995 27.066V24.9444C38.995 24.5856 38.7506 24.284 38.4022 24.2008L36.5718 23.7796C35.9738 23.6392 35.4954 23.2232 35.2926 22.6564C35.1886 22.3652 35.069 22.0792 34.939 21.8036C34.679 21.2576 34.7206 20.6232 35.0482 20.098L36.0466 18.5068C36.239 18.2052 36.1922 17.8152 35.9374 17.5656L34.4398 16.068C34.185 15.8132 33.8002 15.7716 33.4986 15.9588L31.9022 16.9572C31.3822 17.2848 30.7426 17.3212 30.2018 17.0664C29.9262 16.9364 29.635 16.8168 29.349 16.7128C28.7822 16.51 28.361 16.0316 28.2258 15.4336L27.7994 13.6032C27.7214 13.2444 27.4198 13 27.061 13H24.9394C24.5806 13 24.279 13.2444 24.1958 13.5928L23.7694 15.4284C23.629 16.0264 23.213 16.5048 22.6462 16.7076C22.355 16.8116 22.069 16.9312 21.7934 17.0612C21.2474 17.3212 20.613 17.2796 20.0878 16.952L18.4966 15.9536C18.195 15.7612 17.805 15.808 17.5502 16.0628L16.0578 17.5552C15.803 17.81 15.7614 18.1948 15.9486 18.4964L16.947 20.0876C17.2746 20.6128 17.3162 21.2472 17.0562 21.7932C16.9262 22.0688 16.8066 22.36 16.7026 22.646C16.4998 23.2076 16.0214 23.6288 15.4234 23.7692L13.593 24.1904C13.2446 24.2788 13.0002 24.5804 13.0002 24.9392V27.0608C13.0002 27.4196 13.2446 27.7212 13.593 27.8044L15.4234 28.2256C16.0214 28.366 16.4998 28.782 16.7026 29.3488C16.8066 29.6348 16.9262 29.9208 17.0562 30.2016C17.311 30.7476 17.2746 31.382 16.947 31.902L15.9538 33.4984C15.7666 33.8 15.8082 34.19 16.063 34.4396L17.5606 35.932C17.8154 36.1868 18.2002 36.2284 18.507 36.0412L20.0982 35.0428C20.3946 34.8608 20.7222 34.7672 21.055 34.7672C21.3098 34.7672 21.5646 34.8244 21.8038 34.9336C22.0794 35.0636 22.3654 35.1832 22.6566 35.2872C23.2234 35.49 23.6394 35.9684 23.7798 36.5664L24.2062 38.3968C24.2842 38.7452 24.591 38.9896 24.9498 38.9896H27.0714C27.4302 38.9896 27.7318 38.7452 27.815 38.3968L28.2414 36.5664C28.3818 35.9684 28.7978 35.49 29.3646 35.2872C29.6558 35.1832 29.9418 35.0636 30.2174 34.9336C30.7634 34.6736 31.3978 34.7152 31.9178 35.0428L33.5142 36.0412C33.8158 36.2284 34.2058 36.1868 34.4554 35.932L35.953 34.4344C36.1922 34.19 36.239 33.8052 36.0466 33.5036Z" fill="black"/>
</svg>
