<svg width="53" height="52" viewBox="0 0 53 52" fill="none" xmlns="http://www.w3.org/2000/svg">
<path d="M3.5 49.5625H16.5C16.6067 49.5626 16.7124 49.5416 16.811 49.5008C16.9096 49.46 16.9992 49.4001 17.0747 49.3247C17.1501 49.2492 17.21 49.1596 17.2508 49.061C17.2916 48.9624 17.3126 48.8567 17.3125 48.75C17.31 47.2947 16.8735 45.8733 16.0589 44.6674C15.2442 43.4615 14.0884 42.526 12.7392 41.9805C13.3442 41.4282 13.768 40.7058 13.9551 39.9083C14.1422 39.1107 14.0838 38.2752 13.7876 37.5114C13.4914 36.7477 12.9712 36.0913 12.2952 35.6284C11.6193 35.1656 10.8192 34.9179 10 34.9179C9.18079 34.9179 8.38072 35.1656 7.70478 35.6284C7.02885 36.0913 6.50863 36.7477 6.2124 37.5114C5.91617 38.2752 5.85777 39.1107 6.04487 39.9083C6.23196 40.7058 6.65581 41.4282 7.26079 41.9805C5.91161 42.526 4.75579 43.4615 3.94113 44.6674C3.12646 45.8733 2.68998 47.2947 2.6875 48.75C2.68744 48.8567 2.70841 48.9624 2.74922 49.061C2.79003 49.1596 2.84988 49.2492 2.92534 49.3247C3.0008 49.4001 3.09039 49.46 3.189 49.5008C3.2876 49.5416 3.39328 49.5626 3.5 49.5625ZM7.5625 39C7.5625 38.5179 7.70546 38.0467 7.97329 37.6458C8.24113 37.245 8.62181 36.9325 9.06721 36.7481C9.5126 36.5636 10.0027 36.5153 10.4755 36.6093C10.9484 36.7034 11.3827 36.9356 11.7236 37.2764C12.0645 37.6173 12.2966 38.0517 12.3907 38.5245C12.4847 38.9973 12.4364 39.4874 12.252 39.9328C12.0675 40.3782 11.755 40.7589 11.3542 41.0267C10.9534 41.2946 10.4821 41.4375 10 41.4375C9.35375 41.4368 8.73417 41.1798 8.27721 40.7228C7.82024 40.2658 7.56321 39.6463 7.5625 39ZM10 43.0625C11.3673 43.0641 12.6883 43.5574 13.7219 44.4525C14.7555 45.3475 15.4326 46.5845 15.6296 47.9375H4.37042C4.56737 46.5845 5.24448 45.3475 6.27807 44.4525C7.31165 43.5574 8.63274 43.0641 10 43.0625ZM45.2392 41.9805C45.8442 41.4282 46.268 40.7058 46.4551 39.9083C46.6422 39.1107 46.5838 38.2752 46.2876 37.5114C45.9914 36.7477 45.4712 36.0913 44.7952 35.6284C44.1193 35.1656 43.3192 34.9179 42.5 34.9179C41.6808 34.9179 40.8807 35.1656 40.2048 35.6284C39.5288 36.0913 39.0086 36.7477 38.7124 37.5114C38.4162 38.2752 38.3578 39.1107 38.5449 39.9083C38.732 40.7058 39.1558 41.4282 39.7608 41.9805C38.4116 42.526 37.2558 43.4615 36.4411 44.6674C35.6265 45.8733 35.19 47.2947 35.1875 48.75C35.1874 48.8567 35.2084 48.9624 35.2492 49.061C35.29 49.1596 35.3499 49.2492 35.4253 49.3247C35.5008 49.4001 35.5904 49.46 35.689 49.5008C35.7876 49.5416 35.8933 49.5626 36 49.5625H49C49.1067 49.5626 49.2124 49.5416 49.311 49.5008C49.4096 49.46 49.4992 49.4001 49.5747 49.3247C49.6501 49.2492 49.71 49.1596 49.7508 49.061C49.7916 48.9624 49.8126 48.8567 49.8125 48.75C49.81 47.2947 49.3735 45.8733 48.5589 44.6674C47.7442 43.4615 46.5884 42.526 45.2392 41.9805ZM40.0625 39C40.0625 38.5179 40.2055 38.0467 40.4733 37.6458C40.7411 37.245 41.1218 36.9325 41.5672 36.7481C42.0126 36.5636 42.5027 36.5153 42.9755 36.6093C43.4484 36.7034 43.8827 36.9356 44.2236 37.2764C44.5645 37.6173 44.7966 38.0517 44.8907 38.5245C44.9847 38.9973 44.9364 39.4874 44.752 39.9328C44.5675 40.3782 44.255 40.7589 43.8542 41.0267C43.4534 41.2946 42.9821 41.4375 42.5 41.4375C41.8538 41.4368 41.2342 41.1798 40.7772 40.7228C40.3202 40.2658 40.0632 39.6463 40.0625 39ZM36.8704 47.9375C37.0659 46.5839 37.7426 45.346 38.7765 44.4507C39.8104 43.5553 41.1323 43.0625 42.5 43.0625C43.8677 43.0625 45.1896 43.5553 46.2235 44.4507C47.2574 45.346 47.9341 46.5839 48.1296 47.9375H36.8704ZM3.5 17.0625H16.5C16.6067 17.0626 16.7124 17.0416 16.811 17.0008C16.9096 16.96 16.9992 16.9001 17.0747 16.8247C17.1501 16.7492 17.21 16.6596 17.2508 16.561C17.2916 16.4624 17.3126 16.3567 17.3125 16.25C17.31 14.7947 16.8735 13.3733 16.0589 12.1674C15.2442 10.9615 14.0884 10.026 12.7392 9.48054C13.3442 8.92817 13.768 8.20581 13.9551 7.40825C14.1422 6.61069 14.0838 5.7752 13.7876 5.01143C13.4914 4.24765 12.9712 3.59128 12.2952 3.12844C11.6193 2.66561 10.8192 2.41794 10 2.41794C9.18079 2.41794 8.38072 2.66561 7.70478 3.12844C7.02885 3.59128 6.50863 4.24765 6.2124 5.01143C5.91617 5.7752 5.85777 6.61069 6.04487 7.40825C6.23196 8.20581 6.65581 8.92817 7.26079 9.48054C5.91161 10.026 4.75579 10.9615 3.94113 12.1674C3.12646 13.3733 2.68998 14.7947 2.6875 16.25C2.68744 16.3567 2.70841 16.4624 2.74922 16.561C2.79003 16.6596 2.84988 16.7492 2.92534 16.8247C3.0008 16.9001 3.09039 16.96 3.189 17.0008C3.2876 17.0416 3.39328 17.0626 3.5 17.0625ZM7.5625 6.50001C7.5625 6.01792 7.70546 5.54666 7.97329 5.14581C8.24113 4.74497 8.62181 4.43255 9.06721 4.24806C9.5126 4.06357 10.0027 4.0153 10.4755 4.10935C10.9484 4.2034 11.3827 4.43555 11.7236 4.77644C12.0645 5.11733 12.2966 5.55165 12.3907 6.02448C12.4847 6.49731 12.4364 6.98741 12.252 7.43281C12.0675 7.8782 11.755 8.25889 11.3542 8.52672C10.9534 8.79456 10.4821 8.93751 10 8.93751C9.35375 8.93681 8.73417 8.67977 8.27721 8.22281C7.82024 7.76584 7.56321 7.14626 7.5625 6.50001ZM10 10.5625C11.3673 10.5641 12.6883 11.0574 13.7219 11.9525C14.7555 12.8475 15.4326 14.0845 15.6296 15.4375H4.37042C4.56737 14.0845 5.24448 12.8475 6.27807 11.9525C7.31165 11.0574 8.63274 10.5641 10 10.5625ZM45.2392 9.48054C45.8442 8.92817 46.268 8.20581 46.4551 7.40825C46.6422 6.61069 46.5838 5.7752 46.2876 5.01143C45.9914 4.24765 45.4712 3.59128 44.7952 3.12844C44.1193 2.66561 43.3192 2.41794 42.5 2.41794C41.6808 2.41794 40.8807 2.66561 40.2048 3.12844C39.5288 3.59128 39.0086 4.24765 38.7124 5.01143C38.4162 5.7752 38.3578 6.61069 38.5449 7.40825C38.732 8.20581 39.1558 8.92817 39.7608 9.48054C38.4116 10.026 37.2558 10.9615 36.4411 12.1674C35.6265 13.3733 35.19 14.7947 35.1875 16.25C35.1874 16.3567 35.2084 16.4624 35.2492 16.561C35.29 16.6596 35.3499 16.7492 35.4253 16.8247C35.5008 16.9001 35.5904 16.96 35.689 17.0008C35.7876 17.0416 35.8933 17.0626 36 17.0625H49C49.1067 17.0626 49.2124 17.0416 49.311 17.0008C49.4096 16.96 49.4992 16.9001 49.5747 16.8247C49.6501 16.7492 49.71 16.6596 49.7508 16.561C49.7916 16.4624 49.8126 16.3567 49.8125 16.25C49.81 14.7947 49.3735 13.3733 48.5589 12.1674C47.7442 10.9615 46.5884 10.026 45.2392 9.48054ZM40.0625 6.50001C40.0625 6.01792 40.2055 5.54666 40.4733 5.14581C40.7411 4.74497 41.1218 4.43255 41.5672 4.24806C42.0126 4.06357 42.5027 4.0153 42.9755 4.10935C43.4484 4.2034 43.8827 4.43555 44.2236 4.77644C44.5645 5.11733 44.7966 5.55165 44.8907 6.02448C44.9847 6.49731 44.9364 6.98741 44.752 7.43281C44.5675 7.8782 44.255 8.25889 43.8542 8.52672C43.4534 8.79456 42.9821 8.93751 42.5 8.93751C41.8538 8.93681 41.2342 8.67977 40.7772 8.22281C40.3202 7.76584 40.0632 7.14626 40.0625 6.50001ZM36.8704 15.4375C37.0659 14.0839 37.7426 12.846 38.7765 11.9507C39.8104 11.0553 41.1323 10.5625 42.5 10.5625C43.8677 10.5625 45.1896 11.0553 46.2235 11.9507C47.2574 12.846 47.9341 14.0839 48.1296 15.4375H36.8704ZM9.88732 18.7431C9.78789 18.7042 9.68175 18.6853 9.57501 18.6876C9.46828 18.6899 9.36304 18.7132 9.26534 18.7563C9.16765 18.7993 9.07942 18.8613 9.00573 18.9385C8.93205 19.0158 8.87434 19.1068 8.83595 19.2064C7.13795 23.5763 7.13795 28.4237 8.83595 32.7936C8.89516 32.9464 8.99923 33.0778 9.13448 33.1704C9.26973 33.263 9.42983 33.3126 9.59375 33.3125C9.69423 33.3126 9.79383 33.2938 9.88732 33.257C9.98679 33.2185 10.0777 33.1608 10.1549 33.0872C10.232 33.0135 10.2939 32.9254 10.337 32.8279C10.3801 32.7303 10.4036 32.6252 10.4061 32.5186C10.4086 32.412 10.39 32.3059 10.3515 32.2064C8.7995 28.2144 8.7995 23.7857 10.3515 19.7936C10.39 19.6941 10.4086 19.5881 10.4061 19.4814C10.4036 19.3748 10.3801 19.2697 10.337 19.1722C10.2939 19.0746 10.232 18.9865 10.1549 18.9129C10.0777 18.8392 9.98679 18.7815 9.88732 18.7431ZM23.0167 44.3781C23.2197 44.3779 23.4154 44.3017 23.565 44.1644C23.7147 44.0272 23.8075 43.8389 23.8253 43.6366C23.843 43.4343 23.7843 43.2327 23.6608 43.0715C23.5373 42.9103 23.3578 42.8012 23.1579 42.7658C20.9414 42.371 18.8275 41.5327 16.9427 40.3013C16.8533 40.2429 16.7533 40.2028 16.6484 40.1831C16.5434 40.1635 16.4357 40.1647 16.3312 40.1867C16.2267 40.2088 16.1277 40.2512 16.0396 40.3116C15.9516 40.3719 15.8763 40.4491 15.8181 40.5386C15.7599 40.6281 15.7199 40.7282 15.7004 40.8331C15.6809 40.9381 15.6823 41.0459 15.7045 41.1503C15.7268 41.2547 15.7693 41.3538 15.8299 41.4417C15.8904 41.5296 15.9677 41.6048 16.0573 41.6629C18.124 43.0141 20.4427 43.9333 22.8738 44.3654C22.921 44.3735 22.9688 44.3777 23.0167 44.3781ZM36.6816 40.5393C36.6235 40.4498 36.5483 40.3726 36.4603 40.3121C36.3723 40.2517 36.2732 40.2092 36.1688 40.1871C36.0644 40.165 35.9566 40.1637 35.8516 40.1833C35.7467 40.2029 35.6467 40.243 35.5573 40.3013C33.6725 41.5327 31.5586 42.371 29.3421 42.7658C29.1422 42.8012 28.9627 42.9103 28.8392 43.0715C28.7157 43.2327 28.657 43.4343 28.6747 43.6366C28.6925 43.8389 28.7853 44.0272 28.935 44.1644C29.0846 44.3017 29.2803 44.3779 29.4833 44.3781C29.5312 44.3777 29.579 44.3735 29.6262 44.3654C32.0573 43.9333 34.376 43.0141 36.4427 41.6629C36.6234 41.5455 36.75 41.3612 36.7948 41.1506C36.8396 40.9399 36.7989 40.72 36.6816 40.5393ZM42.6127 33.257C42.7062 33.2938 42.8058 33.3126 42.9062 33.3125C43.0702 33.3126 43.2303 33.263 43.3655 33.1704C43.5007 33.0778 43.6048 32.9464 43.664 32.7936C45.362 28.4237 45.362 23.5763 43.664 19.2064C43.5861 19.0055 43.4316 18.8437 43.2345 18.7566C43.0373 18.6696 42.8136 18.6644 42.6127 18.7423C42.4117 18.8201 42.2499 18.9746 42.1628 19.1718C42.0758 19.3689 42.0706 19.5926 42.1485 19.7936C43.7005 23.7857 43.7005 28.2144 42.1485 32.2064C42.11 32.3059 42.0914 32.412 42.0939 32.5186C42.0964 32.6252 42.1199 32.7303 42.163 32.8279C42.2061 32.9254 42.268 33.0135 42.3451 33.0872C42.4223 33.1608 42.5132 33.2185 42.6127 33.257ZM34.7463 9.35329C32.1131 8.01845 29.2023 7.32285 26.25 7.32285C23.2977 7.32285 20.387 8.01845 17.7537 9.35329C17.6581 9.40156 17.5729 9.4683 17.5032 9.54963C17.4334 9.63097 17.3805 9.72531 17.3474 9.82721C17.3143 9.9291 17.3016 10.0365 17.3102 10.1433C17.3189 10.2501 17.3485 10.3542 17.3975 10.4495C17.4465 10.5447 17.5139 10.6294 17.5957 10.6985C17.6776 10.7676 17.7723 10.8199 17.8745 10.8522C17.9766 10.8846 18.0842 10.8964 18.1909 10.8869C18.2976 10.8775 18.4014 10.8471 18.4963 10.7974C20.8997 9.57987 23.5559 8.94543 26.25 8.94543C28.9441 8.94543 31.6004 9.57987 34.0037 10.7974C34.1181 10.8569 34.2452 10.888 34.3742 10.8878C34.5565 10.8881 34.7336 10.827 34.877 10.7144C35.0204 10.6018 35.1217 10.4443 35.1646 10.2671C35.2076 10.09 35.1897 9.90348 35.1138 9.73773C35.038 9.57197 34.9085 9.43655 34.7463 9.35329ZM34.375 18.6875H18.125C18.0183 18.6875 17.9126 18.7084 17.814 18.7492C17.7154 18.79 17.6258 18.8499 17.5503 18.9254C17.4749 19.0008 17.415 19.0904 17.3742 19.189C17.3334 19.2876 17.3124 19.3933 17.3125 19.5V28.4375H16.5C16.3933 28.4375 16.2876 28.4584 16.189 28.4992C16.0904 28.54 16.0008 28.5999 15.9253 28.6754C15.8499 28.7508 15.79 28.8404 15.7492 28.939C15.7084 29.0376 15.6874 29.1433 15.6875 29.25C15.6886 30.3271 16.117 31.3598 16.8786 32.1214C17.6402 32.883 18.6729 33.3114 19.75 33.3125H32.75C33.8271 33.3114 34.8598 32.883 35.6214 32.1214C36.383 31.3598 36.8114 30.3271 36.8125 29.25C36.8126 29.1433 36.7916 29.0376 36.7508 28.939C36.71 28.8404 36.6501 28.7508 36.5747 28.6754C36.4992 28.5999 36.4096 28.54 36.311 28.4992C36.2124 28.4584 36.1067 28.4375 36 28.4375H35.1875V19.5C35.1876 19.3933 35.1666 19.2876 35.1258 19.189C35.085 19.0904 35.0251 19.0008 34.9497 18.9254C34.8742 18.8499 34.7846 18.79 34.686 18.7492C34.5874 18.7084 34.4817 18.6875 34.375 18.6875ZM18.9375 20.3125H33.5625V28.4375H18.9375V20.3125ZM32.75 31.6875H19.75C19.246 31.6869 18.7546 31.5304 18.343 31.2395C17.9315 30.9485 17.62 30.5374 17.4514 30.0625H35.0486C34.88 30.5374 34.5685 30.9485 34.157 31.2395C33.7454 31.5304 33.254 31.6869 32.75 31.6875Z" fill="black"/>
<path d="M26.25 44.6875C26.6987 44.6875 27.0625 44.3237 27.0625 43.875C27.0625 43.4263 26.6987 43.0625 26.25 43.0625C25.8013 43.0625 25.4375 43.4263 25.4375 43.875C25.4375 44.3237 25.8013 44.6875 26.25 44.6875Z" fill="black"/>
</svg>
