<svg width="25" height="24" viewBox="0 0 25 24" fill="none" xmlns="http://www.w3.org/2000/svg">
<path fill-rule="evenodd" clip-rule="evenodd" d="M12.75 3C7.78145 3 3.75 7.03145 3.75 12C3.75 16.9686 7.78145 21 12.75 21C17.7088 21 21.75 16.9686 21.75 12C21.75 7.03145 17.7088 3 12.75 3ZM18.6947 7.14859C19.7684 8.45662 20.4127 10.1258 20.4322 11.9317C20.1784 11.8829 17.6404 11.3655 15.083 11.6876C15.0244 11.5607 14.9756 11.4241 14.917 11.2874C14.7608 10.9165 14.5852 10.5358 14.4094 10.1746C17.2402 9.0228 18.5287 7.36334 18.6947 7.14859ZM12.75 4.32755C14.7023 4.32755 16.4886 5.05966 17.8455 6.26031C17.7088 6.45553 16.5472 8.00759 13.814 9.03253C12.5548 6.71909 11.1589 4.82538 10.9442 4.53254C11.52 4.39588 12.1253 4.32755 12.75 4.32755ZM9.47996 5.04989C9.68494 5.32321 11.0515 7.22668 12.3303 9.49131C8.73807 10.448 5.56562 10.4284 5.22397 10.4284C5.7218 8.04664 7.33243 6.06507 9.47996 5.04989ZM5.05803 12.0098C5.05803 11.9317 5.05803 11.8536 5.05803 11.7755C5.38991 11.7852 9.11876 11.8341 12.955 10.6822C13.1795 11.1117 13.3845 11.551 13.5797 11.9902C13.4821 12.0195 13.3747 12.0488 13.2771 12.0781C9.31399 13.3568 7.20553 16.8514 7.02983 17.1442C5.80965 15.7874 5.05803 13.9816 5.05803 12.0098ZM12.75 19.692C10.9734 19.692 9.33352 19.0868 8.03525 18.0716C8.17191 17.7885 9.73371 14.782 14.0678 13.269C14.0873 13.2592 14.0971 13.2592 14.1166 13.2495C15.2001 16.051 15.6394 18.4034 15.7565 19.077C14.8292 19.4772 13.814 19.692 12.75 19.692ZM17.0352 18.3742C16.9572 17.9056 16.5472 15.6605 15.5417 12.898C17.9528 12.5173 20.0613 13.1421 20.3249 13.23C19.993 15.3677 18.763 17.2126 17.0352 18.3742Z" fill="black"/>
</svg>
