<svg width="53" height="52" viewBox="0 0 53 52" fill="none" xmlns="http://www.w3.org/2000/svg">
<path d="M51.0873 23.4884L46.6455 22.0199C46.4631 21.0771 46.215 20.1482 45.9029 19.24L49.0219 15.7425L48.7172 15.1154C48.1881 14.0271 47.5813 12.9785 46.9013 11.9777L46.5103 11.4025L41.9436 12.3531C41.309 11.6245 40.6252 10.9403 39.8969 10.3054L40.8464 5.73871L40.2713 5.34767C39.27 4.66722 38.2207 4.06035 37.1316 3.53183L36.5055 3.22919L33.01 6.34815C32.1017 6.03656 31.1728 5.78844 30.2301 5.60559L28.7616 1.16375L28.068 1.11279C26.8576 1.02543 25.6425 1.02543 24.4321 1.11279L23.7384 1.16271L22.27 5.60559C21.3277 5.78863 20.3959 6.03719 19.49 6.34815L15.9925 3.22919L15.3654 3.53391C14.2772 4.06292 13.2286 4.66978 12.2277 5.34975L11.6536 5.74079L12.6042 10.3074C11.8756 10.9421 11.1914 11.6259 10.5564 12.3541L5.99084 11.4036L5.5998 11.9787C4.91935 12.98 4.31247 14.0293 3.78396 15.1185L3.48132 15.7445L6.5982 19.24C6.28661 20.1483 6.03849 21.0772 5.85564 22.0199L1.4138 23.4884L1.36284 24.1821C1.31916 24.7842 1.29004 25.3874 1.29004 26C1.29004 26.6125 1.31916 27.2157 1.36284 27.8179L1.41276 28.5116L5.8546 29.9801C6.03764 30.9254 6.2862 31.8562 6.59716 32.76L3.4782 36.2575L3.78292 36.8846C4.31193 37.9728 4.91879 39.0215 5.59876 40.0223L5.9898 40.5974L10.5564 39.6469C11.1911 40.3754 11.8749 41.0596 12.6032 41.6946L11.6536 46.2613L12.2288 46.6523C13.23 47.3328 14.2794 47.9396 15.3685 48.4682L15.9946 48.7708L19.4911 45.6539C20.3969 45.9649 21.3277 46.2134 22.271 46.3965L23.7395 50.8383L24.4332 50.8882C25.0343 50.9309 25.6375 50.96 26.25 50.96C26.8626 50.96 27.4658 50.9309 28.068 50.8872L28.7616 50.8373L30.2301 46.3954C31.173 46.2131 32.1019 45.965 33.01 45.6529L36.5076 48.7718L37.1347 48.4671C38.2229 47.9381 39.2715 47.3312 40.2724 46.6513L40.8475 46.2602L39.8969 41.6936C40.6255 41.059 41.3097 40.3751 41.9447 39.6469L46.5113 40.5964L46.9024 40.0213C47.5828 39.02 48.1897 37.9707 48.7182 36.8815L49.0208 36.2554L45.9019 32.76C46.2128 31.8541 46.4614 30.9223 46.6444 29.9801L51.0863 28.5116L51.1362 27.8179C51.1809 27.2157 51.21 26.6125 51.21 26C51.21 25.3874 51.1809 24.7842 51.1372 24.1821L51.0873 23.4884ZM49.1051 26.9755L44.8047 28.3972L44.7028 29.0201C44.5038 30.2499 44.1815 31.4565 43.7408 32.6217L43.5182 33.2103L46.5321 36.5924C46.2336 37.1644 45.9071 37.727 45.5587 38.2741L41.1418 37.3547L40.7424 37.8435C39.9486 38.8123 39.0606 39.6999 38.0915 40.4934L37.6027 40.8928L38.5231 45.3097C37.9771 45.657 37.4155 45.9826 36.8414 46.2842L33.4593 43.2682L32.8696 43.4928C31.7152 43.9306 30.5036 44.253 29.2692 44.4538L28.6462 44.5557L27.2245 48.8561C26.5787 48.8883 25.9183 48.8883 25.2724 48.8561L23.8508 44.5557L23.2278 44.4538C21.9983 44.2552 20.792 43.9329 19.6273 43.4917L19.0376 43.2682L15.6556 46.2831C15.0813 45.9829 14.5202 45.6581 13.9739 45.3097L14.8932 40.8928L14.4044 40.4934C13.4357 39.6996 12.548 38.8116 11.7545 37.8425L11.3552 37.3537L6.93828 38.2741C6.59037 37.7272 6.26527 37.1662 5.9638 36.5924L8.9798 33.2103L8.75516 32.6206C8.31499 31.4557 7.99305 30.2495 7.7942 29.0201L7.69228 28.3972L3.39188 26.9755C3.36147 26.3255 3.36251 25.6744 3.395 25.0245L7.6954 23.6028L7.79732 22.9798C7.99585 21.7503 8.31815 20.544 8.75932 19.3794L8.98292 18.7897L5.96796 15.4076C6.26644 14.8356 6.593 14.273 6.9414 13.7259L11.3583 14.6453L11.7576 14.1565C12.5515 13.1877 13.4395 12.3 14.4086 11.5066L14.8974 11.1072L13.977 6.69031C14.5239 6.3424 15.0849 6.0173 15.6587 5.71583L19.0408 8.73079L19.6294 8.50823C20.7947 8.06792 22.0013 7.74564 23.2309 7.54623L23.8539 7.44431L25.2756 3.14391C25.9259 3.11167 26.5773 3.11167 27.2276 3.14391L28.6493 7.44431L29.2723 7.54623C30.5018 7.74476 31.7081 8.06706 32.8728 8.50823L33.4624 8.73183L36.8445 5.71687C37.4165 6.01535 37.9792 6.34191 38.5262 6.69031L37.6068 11.1072L38.0956 11.5066C39.0608 12.297 39.952 13.1882 40.7456 14.1575L41.1449 14.6463L45.5618 13.7259C45.9092 14.2719 46.2347 14.8335 46.5363 15.4076L43.5203 18.7897L43.7449 19.3794C44.1828 20.5338 44.5052 21.7453 44.7059 22.9798L44.8078 23.6028L49.1082 25.0245C49.1386 25.6745 49.1376 26.3256 49.1051 26.9755Z" fill="black"/>
<path d="M25.9472 11.4442C20.5507 11.597 16.0236 16.1117 15.8561 21.5082C15.8045 23.0536 16.0997 24.5909 16.7203 26.0071C17.3409 27.4233 18.2709 28.6825 19.442 29.692C21.1248 31.148 22.0899 33.1874 22.0899 35.36V40.56H25.2099V42.64H27.2899V40.56H30.4099V35.2893C30.4099 33.2093 31.3948 31.1511 33.1128 29.6442C34.2236 28.6698 35.1137 27.4696 35.7237 26.1238C36.3337 24.778 36.6494 23.3176 36.6499 21.84C36.6547 20.4484 36.3779 19.0702 35.8361 17.7884C35.2944 16.5065 34.499 15.3475 33.4976 14.3811C31.4655 12.4062 28.776 11.3932 25.9472 11.4442ZM28.3299 38.48H24.1699V36.4H28.3299V38.48ZM31.7411 28.08C29.8483 29.7419 28.6596 31.955 28.3892 34.32H27.2899V24.3506L30.1052 21.5353L28.6346 20.0647L26.2499 22.4494L23.8652 20.0647L22.3946 21.5353L25.2099 24.3506V34.32H24.1179C23.8631 31.9686 22.6868 29.7492 20.8024 28.1195C19.8657 27.3118 19.1218 26.3044 18.6254 25.1715C18.1291 24.0386 17.8928 22.8089 17.934 21.5727C18.0682 17.2567 21.6884 13.6458 26.0055 13.5242C28.281 13.4462 30.4213 14.2917 32.0479 15.8725C32.849 16.6456 33.4855 17.5729 33.9189 18.5984C34.3523 19.624 34.5737 20.7266 34.5699 21.84C34.5695 23.0215 34.3169 24.1893 33.8291 25.2654C33.3412 26.3414 32.6294 27.301 31.7411 28.08Z" fill="black"/>
</svg>
