<svg width="52" height="52" viewBox="0 0 52 52" fill="none" xmlns="http://www.w3.org/2000/svg">
<path d="M32.9515 39.9912V40.7912C32.9339 40.9488 32.9419 40.9936 32.8723 41.1384C32.7691 41.3528 32.5635 41.5184 32.3291 41.572C32.2715 41.5848 32.2107 41.5848 32.1515 41.592H31.3515V43.6608L32.4827 44.7928H37.8955C38.0203 44.4392 38.2259 44.1144 38.4971 43.8552C38.9339 43.4392 39.5275 43.1976 40.1379 43.192C40.1483 43.192 40.1587 43.192 40.1691 43.192C41.0491 43.2008 41.9011 43.728 42.2971 44.512C42.6275 45.1664 42.6347 45.9736 42.3163 46.6336C41.8715 47.5576 40.7995 48.1408 39.7443 47.9584C38.9099 47.8144 38.1867 47.1848 37.8939 46.3928H32.1515C31.9403 46.3864 31.7403 46.304 31.5859 46.1584L29.9851 44.5584C29.8403 44.404 29.7571 44.204 29.7507 43.992V41.592H26.5499V44.9376C27.1275 45.148 27.6259 45.5744 27.9003 46.1256C28.2243 46.7768 28.2299 47.5776 27.9131 48.2344C27.4675 49.1584 26.3963 49.7408 25.3403 49.5584C24.3427 49.3864 23.5051 48.5208 23.3707 47.5128C23.2715 46.7752 23.5387 45.9968 24.0731 45.476C24.3219 45.2328 24.6227 45.048 24.9499 44.932V41.592H21.7491V43.992C21.7427 44.204 21.6595 44.404 21.5147 44.5584L19.9139 46.1584C19.7603 46.3032 19.5603 46.3864 19.3483 46.3928H13.6091C13.5803 46.4752 13.5475 46.5552 13.5099 46.6336C13.0643 47.5576 11.9923 48.1408 10.9371 47.9584C9.93954 47.7864 9.10194 46.92 8.96674 45.9128C8.86674 45.1648 9.14354 44.3768 9.68994 43.8552C10.1267 43.4392 10.7203 43.1976 11.3307 43.192C11.3411 43.192 11.3515 43.192 11.3619 43.192C12.2419 43.2008 13.0939 43.728 13.4899 44.512C13.5363 44.6032 13.5755 44.6968 13.6091 44.7928H19.0171L20.1483 43.6608V41.592H19.3483C19.2891 41.5848 19.2283 41.5848 19.1699 41.572C18.9347 41.5176 18.7307 41.3528 18.6275 41.1384C18.5571 40.9936 18.5659 40.9488 18.5483 40.7912V39.9912H15.2099C15.1811 40.0736 15.1475 40.1536 15.1099 40.232C14.6595 41.1672 13.5635 41.7472 12.5075 41.5512C11.5283 41.3696 10.7083 40.5168 10.5691 39.5256C10.4643 38.7744 10.7403 37.9784 11.2907 37.4536C11.7267 37.0376 12.3203 36.796 12.9315 36.7904C12.9411 36.7904 12.9515 36.7904 12.9619 36.7904C13.8427 36.7992 14.6947 37.3264 15.0907 38.1112C15.1363 38.2016 15.1763 38.2952 15.2091 38.3912H18.5483V35.1904H16.1475C15.9891 35.1744 15.8331 35.1424 15.7027 35.0552C15.6595 35.0264 15.6219 34.9888 15.5819 34.956L10.7803 30.1544C10.6795 30.032 10.5923 29.8984 10.5611 29.7448C10.5515 29.6936 10.5515 29.6408 10.5459 29.5888V17.5856H8.14514C8.02594 17.572 7.90514 17.5584 7.79794 17.5064C7.63554 17.428 7.50194 17.2936 7.42434 17.1328C7.35474 16.988 7.36274 16.9424 7.34514 16.7856V15.9856H3.34434C3.01634 15.9776 2.70994 15.768 2.59634 15.4688C2.41954 15.0032 2.76914 14.412 3.30594 14.3856C3.31874 14.3856 3.33154 14.3856 3.34434 14.3848H7.34514V11.184H3.34434C3.01794 11.176 2.70994 10.9672 2.59634 10.668C2.42114 10.2056 2.76914 9.6104 3.30594 9.5848C3.31874 9.584 3.33154 9.584 3.34434 9.584H7.34514V6.3832H3.34434C3.01794 6.3752 2.70994 6.1664 2.59634 5.8664C2.42114 5.404 2.76914 4.8096 3.30594 4.7832C3.31874 4.7832 3.33154 4.7832 3.34434 4.7824H7.34514V3.9824C7.36274 3.8256 7.35474 3.78 7.42434 3.6352C7.52834 3.4208 7.73234 3.256 7.96754 3.2024C8.02594 3.1888 8.08594 3.1888 8.14514 3.1824H43.3539C43.4139 3.1888 43.4731 3.196 43.5323 3.2024C43.6451 3.2416 43.7603 3.2824 43.8531 3.3568C43.9947 3.4696 44.0947 3.6304 44.1339 3.804C44.1475 3.8624 44.1475 3.9232 44.1547 3.9824V4.7824H48.1555L48.1939 4.7832C48.7107 4.8208 49.1067 5.4032 48.8891 5.9024C48.7659 6.1848 48.4699 6.3752 48.1555 6.3832H44.1547V9.584H48.1555L48.1939 9.5848C48.7107 9.6224 49.1067 10.204 48.8891 10.7032C48.7659 10.9864 48.4699 11.1768 48.1555 11.184H44.1547V14.3848H48.1555L48.1939 14.3856C48.7107 14.4232 49.1067 15.0056 48.8891 15.5048C48.7659 15.7872 48.4699 15.9776 48.1555 15.9856H44.1547V16.7856C44.1363 16.9424 44.1451 16.988 44.0755 17.1328C43.9723 17.3464 43.7659 17.512 43.5323 17.5656C43.4739 17.5792 43.4139 17.5792 43.3539 17.5856H40.9539V29.5888C40.9379 29.7472 40.9059 29.9032 40.8187 30.0336C40.7899 30.0768 40.7523 30.1144 40.7195 30.1544L35.9179 34.956C35.7955 35.0568 35.6619 35.144 35.5083 35.1744C35.4571 35.1848 35.4043 35.1848 35.3523 35.1904H32.9515V38.3912H36.2955C36.4203 38.0376 36.6251 37.7128 36.8971 37.4536C37.3331 37.0376 37.9267 36.796 38.5371 36.7904C38.5475 36.7904 38.5579 36.7904 38.5683 36.7904C39.4491 36.7992 40.3011 37.3264 40.6971 38.1112C41.0267 38.764 41.0347 39.572 40.7163 40.232C40.2659 41.1672 39.1699 41.7472 38.1139 41.5512C37.2923 41.3992 36.5827 40.7736 36.2931 39.9912H32.9515ZM25.7443 46.3928C25.3883 46.396 25.0507 46.6616 24.9699 47.012C24.8859 47.376 25.0947 47.7848 25.4387 47.9304C25.8811 48.1176 26.4651 47.812 26.5411 47.316C26.6083 46.8728 26.2507 46.404 25.7659 46.3928C25.7587 46.3928 25.7515 46.3928 25.7443 46.3928ZM11.3411 44.7928C10.9843 44.796 10.6475 45.0608 10.5667 45.412C10.4827 45.7752 10.6915 46.1848 11.0355 46.3304C11.4779 46.5176 12.0611 46.212 12.1371 45.7152C12.2051 45.272 11.8475 44.8032 11.3619 44.7928C11.3547 44.7928 11.3483 44.7928 11.3411 44.7928ZM40.1483 44.7928C39.7915 44.796 39.4547 45.0624 39.3739 45.412C39.2899 45.7752 39.4979 46.1848 39.8427 46.3304C40.2851 46.5176 40.8683 46.212 40.9443 45.7152C41.0123 45.2728 40.6547 44.8032 40.1691 44.7928C40.1619 44.7928 40.1555 44.7928 40.1483 44.7928ZM31.3515 28.7888H20.1483V39.9912H31.3515V28.7888ZM12.9411 38.3912C12.5851 38.3944 12.2483 38.6592 12.1667 39.0104C12.0827 39.3736 12.2915 39.7832 12.6355 39.9288C13.0771 40.1152 13.6579 39.8136 13.7371 39.3184C13.8075 38.8744 13.4483 38.4016 12.9627 38.3912C12.9555 38.3912 12.9483 38.3912 12.9411 38.3912ZM38.5475 38.3912C38.1915 38.3944 37.8539 38.6608 37.7731 39.0104C37.6891 39.3736 37.8979 39.7832 38.2419 39.9288C38.6827 40.1152 39.2643 39.8144 39.3435 39.3184C39.4139 38.8736 39.0539 38.4016 38.5691 38.3912C38.5619 38.3912 38.5547 38.3912 38.5475 38.3912ZM28.0667 37.5904H23.3491C23.3155 37.5896 23.3067 37.5904 23.2731 37.5872C22.9083 37.552 22.5883 37.2408 22.5523 36.8664C22.5491 36.8328 22.5499 36.824 22.5491 36.7904V31.9896C22.5499 31.9552 22.5491 31.9472 22.5523 31.9136C22.5875 31.5488 22.8995 31.2288 23.2731 31.1928C23.3067 31.1896 23.3155 31.1896 23.3491 31.1888H28.1507C28.1627 31.1896 28.1755 31.1896 28.1883 31.1904C28.2219 31.1928 28.2307 31.1928 28.2643 31.1976C28.6147 31.248 28.9123 31.5544 28.9467 31.9136C28.9499 31.9472 28.9499 31.9552 28.9507 31.9896V36.7064C28.9483 36.82 28.9411 36.8392 28.9291 36.8896C28.8955 37.0336 28.8187 37.1648 28.7163 37.272L28.6323 37.356C28.4979 37.4848 28.3251 37.5704 28.1403 37.5872C28.1075 37.5904 28.0995 37.5896 28.0667 37.5904ZM27.3499 32.7896H24.1491V35.9904H27.3499C27.3499 34.9232 27.3499 33.8568 27.3499 32.7896ZM39.3531 17.5856H36.1523V27.988C36.1371 28.1464 36.1043 28.3024 36.0179 28.4328C35.9883 28.476 35.9515 28.5136 35.9179 28.5544L34.3179 30.1544C34.1947 30.2552 34.0611 30.3432 33.9075 30.3736C33.8563 30.384 33.8035 30.384 33.7515 30.3888H32.9515V33.5896H35.0211L39.3531 29.2576V17.5856ZM15.3475 17.5856H12.1467V29.2576L16.4787 33.5896H18.5483V30.3888H17.7475C17.5899 30.3736 17.4331 30.3408 17.3035 30.2544C17.2595 30.2248 17.2227 30.188 17.1819 30.1544L15.5819 28.5544C15.4811 28.4312 15.3931 28.2984 15.3627 28.1448C15.3523 28.0928 15.3523 28.04 15.3475 27.988V17.5856ZM34.5523 17.5856H31.3515V27.188H32.1515C32.2107 27.1952 32.2699 27.2016 32.3291 27.208C32.5003 27.268 32.6667 27.3512 32.7771 27.4896C32.8523 27.5832 32.9051 27.6928 32.9315 27.8104C32.9451 27.8688 32.9451 27.9288 32.9515 27.988V28.7888H33.4203L34.5523 27.6568V17.5856ZM20.1483 27.188V17.5856H16.9475V27.6568L18.0795 28.7888H18.5483V27.988C18.5659 27.8312 18.5571 27.7864 18.6275 27.6408C18.7323 27.424 18.9379 27.2608 19.1699 27.208C19.2283 27.1952 19.2891 27.1952 19.3483 27.188H20.1483ZM21.7491 17.5856V27.188H24.9499V17.5856H21.7491ZM26.5499 17.5856V27.188H29.7507V17.5856H26.5499ZM8.94594 15.9856H42.5539V4.7824H8.94594C8.94594 8.5168 8.94594 12.2512 8.94594 15.9856ZM16.1475 11.184H11.3459C11.0203 11.176 10.7115 10.9672 10.5979 10.668C10.4227 10.2056 10.7707 9.6104 11.3075 9.5848C11.3203 9.584 11.3331 9.584 11.3459 9.584H16.1475C16.1603 9.584 16.1731 9.5848 16.1859 9.5848C16.4987 9.6072 16.7867 9.8128 16.8955 10.1C17.0707 10.5624 16.7227 11.1576 16.1859 11.1832C16.1731 11.184 16.1603 11.184 16.1475 11.184ZM19.3483 7.9832H11.3459C10.9219 7.9704 10.5459 7.6056 10.5459 7.1832C10.5459 6.7984 10.8595 6.4384 11.2459 6.3896C11.2907 6.384 11.3019 6.3848 11.3459 6.3832H19.3483C19.3651 6.3832 19.3819 6.384 19.3987 6.3848C19.8387 6.4264 20.1979 6.8432 20.1419 7.2832C20.0979 7.632 19.7995 7.9328 19.4483 7.9768C19.4043 7.9824 19.3931 7.9824 19.3483 7.9832ZM25.7499 7.9832H22.5491C22.1379 7.9752 21.7739 7.6304 21.7499 7.2312C21.7251 6.8088 22.0843 6.4008 22.5171 6.384C22.5275 6.3832 22.5387 6.3832 22.5491 6.3832H25.7499C25.7603 6.3832 25.7707 6.3832 25.7819 6.384C26.1891 6.408 26.5419 6.7616 26.5499 7.1672C26.5579 7.5784 26.2059 7.9656 25.7819 7.9824C25.7707 7.9832 25.7603 7.9832 25.7499 7.9832Z" fill="#212121"/>
</svg>
