<svg width="53" height="52" viewBox="0 0 53 52" fill="none" xmlns="http://www.w3.org/2000/svg">
<g clip-path="url(#clip0_1011_363)">
<path d="M21.2812 5.49938C21.4419 5.49936 21.599 5.45169 21.7326 5.36241C21.8662 5.27313 21.9703 5.14625 22.0318 4.9978C22.0933 4.84935 22.1094 4.686 22.078 4.52841C22.0467 4.37081 21.9693 4.22605 21.8557 4.11242L20.3557 2.61236C20.2033 2.46001 19.9967 2.37441 19.7812 2.37442C19.5657 2.37442 19.3591 2.46001 19.2067 2.61238C19.0544 2.76474 18.9688 2.97138 18.9688 3.18685C18.9688 3.40232 19.0544 3.60896 19.2067 3.76132L20.7068 5.26135C20.7821 5.33693 20.8717 5.39687 20.9702 5.43772C21.0688 5.47857 21.1745 5.49953 21.2812 5.49938ZM17.4052 8.1246C17.4543 8.12453 17.5033 8.12015 17.5516 8.11151L19.3849 7.77823C19.5968 7.73954 19.7846 7.61829 19.9072 7.44114C20.0297 7.26399 20.0769 7.04544 20.0383 6.83352C19.9998 6.6216 19.8787 6.43366 19.7016 6.31101C19.5245 6.18835 19.306 6.14102 19.0941 6.17941L17.2608 6.51266C17.0613 6.54896 16.8826 6.65854 16.7598 6.81986C16.6369 6.98119 16.5789 7.18261 16.597 7.38457C16.6151 7.58652 16.708 7.77442 16.8576 7.91134C17.0071 8.04827 17.2024 8.12434 17.4052 8.1246ZM23.5739 3.45782C23.7641 3.45752 23.9481 3.39059 24.0939 3.26866C24.2398 3.14674 24.3383 2.97754 24.3724 2.7905L24.7056 0.957211C24.7253 0.851976 24.724 0.743887 24.7018 0.639156C24.6796 0.534425 24.6369 0.435118 24.5761 0.346942C24.5154 0.258766 24.4379 0.183461 24.3479 0.125353C24.258 0.0672461 24.1575 0.0274832 24.0522 0.00834994C23.9468 -0.0107833 23.8388 -0.00890957 23.7341 0.0138635C23.6295 0.0366365 23.5305 0.0798597 23.4426 0.141049C23.3547 0.202238 23.2799 0.280187 23.2222 0.370414C23.1646 0.460642 23.1254 0.561369 23.1068 0.666807L22.7735 2.50009C22.7544 2.60506 22.7562 2.71277 22.7787 2.81705C22.8013 2.92134 22.8441 3.02016 22.9049 3.10788C22.9656 3.1956 23.043 3.2705 23.1327 3.3283C23.2224 3.3861 23.3226 3.42566 23.4275 3.44473C23.4758 3.45356 23.5248 3.45795 23.5739 3.45782ZM47.0121 46.7381C46.8596 46.5863 46.6531 46.5011 46.4379 46.5013C46.2227 46.5015 46.0164 46.5871 45.8642 46.7392C45.7121 46.8914 45.6265 47.0977 45.6263 47.3129C45.6261 47.5281 45.7113 47.7346 45.8631 47.8871L47.3632 49.3871C47.5173 49.5362 47.7233 49.6195 47.9376 49.6195C48.152 49.6195 48.358 49.5362 48.5121 49.3871C48.5876 49.3117 48.6474 49.2221 48.6883 49.1236C48.7291 49.025 48.7501 48.9193 48.7501 48.8127C48.7501 48.706 48.7291 48.6003 48.6883 48.5017C48.6474 48.4032 48.5876 48.3136 48.5121 48.2382L47.0121 46.7381ZM50.1673 43.888L48.334 44.2213C48.1344 44.2575 47.9557 44.3671 47.8328 44.5284C47.71 44.6897 47.6519 44.8912 47.67 45.0932C47.6881 45.2951 47.781 45.4831 47.9306 45.62C48.0802 45.7569 48.2756 45.833 48.4784 45.8332C48.5273 45.8331 48.5762 45.8287 48.6244 45.8201L50.4577 45.4868C50.5631 45.4682 50.6638 45.429 50.7541 45.3714C50.8443 45.3138 50.9222 45.2389 50.9834 45.151C51.0446 45.0632 51.0878 44.9641 51.1106 44.8595C51.1334 44.7549 51.1352 44.6468 51.1161 44.5414C51.097 44.4361 51.0572 44.3356 50.9991 44.2457C50.941 44.1557 50.8657 44.0782 50.7775 44.0175C50.6893 43.9567 50.59 43.914 50.4853 43.8918C50.3806 43.8696 50.2725 43.8683 50.1673 43.888ZM44.2909 48.5548C44.1859 48.5355 44.0781 48.5371 43.9737 48.5595C43.8694 48.582 43.7704 48.6248 43.6827 48.6856C43.5949 48.7464 43.52 48.8239 43.4623 48.9138C43.4046 49.0036 43.3651 49.1039 43.3463 49.209L43.013 51.0423C42.994 51.1473 42.9958 51.255 43.0183 51.3593C43.0409 51.4636 43.0837 51.5624 43.1445 51.6501C43.2052 51.7378 43.2827 51.8127 43.3724 51.8705C43.4621 51.9283 43.5623 51.9679 43.6672 51.9869C43.7154 51.9955 43.7643 51.9999 43.8132 52C44.0034 51.9997 44.1874 51.9328 44.3333 51.8109C44.4793 51.689 44.5778 51.5198 44.6119 51.3327L44.9451 49.4994C44.9642 49.3944 44.9624 49.2867 44.9398 49.1824C44.9173 49.0781 44.8744 48.9793 44.8137 48.8916C44.7529 48.8039 44.6755 48.729 44.5858 48.6712C44.4961 48.6134 44.3959 48.5738 44.2909 48.5548ZM15.3019 46.3816C15.4319 46.3938 17.6622 46.3288 17.6988 46.3328C17.9759 46.4732 18.2385 46.6406 18.4828 46.8325C19.0473 47.2755 19.6816 47.6215 20.3597 47.8563C20.5117 47.8996 20.6688 47.9229 20.8269 47.9253L39.8353 47.9294C41.0165 47.9045 42.1397 47.4125 42.959 46.5613C43.7783 45.71 44.2269 44.5688 44.2066 43.3875C44.2071 42.7195 44.0658 42.059 43.7922 41.4497C44.444 41.0318 44.9795 40.4558 45.3488 39.7754C45.7182 39.0949 45.9094 38.3321 45.9047 37.5578C45.9071 36.8074 45.7287 36.0675 45.3847 35.4006C45.9475 34.9696 46.4028 34.4141 46.7151 33.7776C47.0273 33.1412 47.1879 32.4411 47.1844 31.7322C47.187 30.9505 46.9928 30.1807 46.6197 29.4938C47.1423 29.0602 47.5624 28.5161 47.8497 27.9008C48.137 27.2855 48.2844 26.6141 48.2812 25.935C48.2812 23.5056 46.6847 21.9375 44.2188 21.9375H32.1491C32.795 19.24 33.445 15.3359 33.3556 14.4097C33.1363 12.1916 32.6284 7.00375 29.3581 5.395C28.8246 5.11239 28.238 4.94404 27.6357 4.90067C27.0335 4.8573 26.4289 4.93988 25.8603 5.14313C25.3068 5.35911 24.7974 5.67439 24.3572 6.07344C22.6063 7.64157 22.6997 9.77032 22.7809 11.4766C22.7931 11.8259 22.8094 12.1509 22.8094 12.4597V14.2634C22.6225 15.5106 17.4916 24.4888 17.3047 24.83C16.9187 25.0575 16.1713 25.4556 15.375 25.87V25.7522C15.3622 24.9451 15.0301 24.176 14.4514 23.6133C13.8727 23.0506 13.0946 22.7401 12.2875 22.75H5.4625C4.65538 22.7401 3.87726 23.0506 3.29856 23.6133C2.71986 24.176 2.38776 24.9451 2.375 25.7522V45.7438C2.3869 46.5515 2.71859 47.3215 3.29736 47.8851C3.87613 48.4486 4.65475 48.7596 5.4625 48.75H12.2875C12.9841 48.7559 13.6621 48.5246 14.2099 48.0942C14.7577 47.6638 15.1428 47.0598 15.3019 46.3816ZM15.375 27.6941C16.3013 27.2228 18.5072 26.0853 18.5722 25.9269C18.9216 25.09 24.4344 16.0794 24.4344 14.3041V12.4597C24.4344 10.6397 23.9875 8.58407 25.4338 7.28813C25.9065 6.83303 26.5224 6.55593 27.1766 6.50407C27.6852 6.49557 28.1879 6.61427 28.6391 6.84938C30.9791 8.00313 31.5031 12.1713 31.7347 14.5641C31.8606 15.8438 30.3291 23.0791 30 23.5625H44.2188C45.7422 23.5625 46.6562 24.3222 46.6562 25.935C46.6618 26.4313 46.5418 26.921 46.3074 27.3585C46.0731 27.796 45.7319 28.1672 45.3156 28.4375H39.75C39.5345 28.4375 39.3278 28.5231 39.1755 28.6755C39.0231 28.8279 38.9375 29.0345 38.9375 29.25C38.9375 29.4655 39.0231 29.6722 39.1755 29.8245C39.3278 29.9769 39.5345 30.0625 39.75 30.0625H45.0597C45.3869 30.5578 45.5607 31.1386 45.5594 31.7322C45.5632 32.1957 45.4583 32.6537 45.253 33.0693C45.0477 33.4848 44.7477 33.8464 44.3772 34.125H39.75C39.5345 34.125 39.3278 34.2106 39.1755 34.363C39.0231 34.5154 38.9375 34.722 38.9375 34.9375C38.9375 35.153 39.0231 35.3597 39.1755 35.512C39.3278 35.6644 39.5345 35.75 39.75 35.75H43.6866C44.0738 36.273 44.2818 36.9071 44.2797 37.5578C44.2877 38.1106 44.1389 38.6543 43.8506 39.1259C43.5623 39.5976 43.1462 39.9779 42.6506 40.2228C42.6303 40.2228 42.6141 40.2188 42.5938 40.2188H39.75C39.5345 40.2188 39.3278 40.3044 39.1755 40.4567C39.0231 40.6091 38.9375 40.8158 38.9375 41.0313C38.9375 41.2467 39.0231 41.4534 39.1755 41.6058C39.3278 41.7582 39.5345 41.8438 39.75 41.8438H42.1631C42.4385 42.3115 42.5831 42.8447 42.5816 43.3875C42.5928 43.7594 42.5307 44.1298 42.3988 44.4776C42.2668 44.8255 42.0677 45.1439 41.8126 45.4148C41.5576 45.6857 41.2517 45.9036 40.9125 46.0563C40.5732 46.2089 40.2072 46.2932 39.8353 46.3044L20.8269 46.3003C19.8722 46.0119 19.1653 45.1628 18.2513 44.8013C17.9985 44.7188 17.7328 44.683 17.4672 44.6956C16.9147 44.6956 15.4806 44.7688 15.375 44.7606V27.6941ZM8.875 44.6875C8.39291 44.6875 7.92164 44.5445 7.5208 44.2767C7.11995 44.0089 6.80753 43.6282 6.62304 43.1828C6.43856 42.7374 6.39028 42.2473 6.48434 41.7745C6.57839 41.3016 6.81054 40.8673 7.15143 40.5264C7.49232 40.1855 7.92664 39.9534 8.39947 39.8593C8.8723 39.7653 9.3624 39.8136 9.80779 39.9981C10.2532 40.1825 10.6339 40.495 10.9017 40.8958C11.1695 41.2966 11.3125 41.7679 11.3125 42.25C11.312 42.8963 11.055 43.516 10.598 43.973C10.141 44.43 9.52131 44.687 8.875 44.6875Z" fill="black"/>
</g>
<defs>
<clipPath id="clip0_1011_363">
<rect width="52" height="52" fill="white" transform="translate(0.75)"/>
</clipPath>
</defs>
</svg>
