<svg width="25" height="24" viewBox="0 0 25 24" fill="none" xmlns="http://www.w3.org/2000/svg">
<path fill-rule="evenodd" clip-rule="evenodd" d="M4.75 3.24268C3.92157 3.24268 3.25 3.91425 3.25 4.74268V19.7427C3.25 20.5711 3.92157 21.2427 4.75 21.2427H19.75C20.5784 21.2427 21.25 20.5711 21.25 19.7427V4.74268C21.25 3.91425 20.5784 3.24268 19.75 3.24268H4.75ZM8.77076 7.2454C8.77639 8.20165 8.06061 8.79087 7.21123 8.78665C6.41107 8.78243 5.71357 8.1454 5.71779 7.24681C5.72201 6.40165 6.38998 5.72243 7.25764 5.74212C8.13795 5.76181 8.77639 6.40728 8.77076 7.2454ZM12.5297 10.0044H10.0097H10.0083V18.5643H12.6717V18.3646C12.6717 17.9847 12.6714 17.6047 12.6711 17.2246C12.6703 16.2108 12.6694 15.1959 12.6746 14.1824C12.676 13.9363 12.6872 13.6804 12.7505 13.4455C12.9881 12.568 13.7771 12.0013 14.6574 12.1406C15.2227 12.2291 15.5967 12.5568 15.7542 13.0898C15.8513 13.423 15.8949 13.7816 15.8991 14.129C15.9105 15.1766 15.9089 16.2242 15.9073 17.2719C15.9067 17.6417 15.9061 18.0117 15.9061 18.3815V18.5629H18.578V18.3576C18.578 17.9056 18.5778 17.4537 18.5775 17.0018C18.577 15.8723 18.5764 14.7428 18.5794 13.6129C18.5808 13.1024 18.526 12.599 18.4008 12.1054C18.2138 11.3713 17.8271 10.7638 17.1985 10.3251C16.7527 10.0129 16.2633 9.81178 15.7163 9.78928C15.654 9.78669 15.5912 9.7833 15.5281 9.77989C15.2484 9.76477 14.9641 9.74941 14.6967 9.80334C13.9317 9.95662 13.2596 10.3068 12.7519 10.9241C12.6929 10.9949 12.6352 11.0668 12.5491 11.1741L12.5297 11.1984V10.0044ZM5.93164 18.5671H8.58242V10.01H5.93164V18.5671Z" fill="black"/>
</svg>
