<svg width="24" height="25" viewBox="0 0 24 25" fill="none" xmlns="http://www.w3.org/2000/svg">
<path d="M18 13.0771H13V18.0771C13 18.3423 12.8946 18.5967 12.7071 18.7842C12.5196 18.9717 12.2652 19.0771 12 19.0771C11.7348 19.0771 11.4804 18.9717 11.2929 18.7842C11.1054 18.5967 11 18.3423 11 18.0771V13.0771H6C5.73478 13.0771 5.48043 12.9717 5.29289 12.7842C5.10536 12.5967 5 12.3423 5 12.0771C5 11.8119 5.10536 11.5575 5.29289 11.37C5.48043 11.1824 5.73478 11.0771 6 11.0771H11V6.07709C11 5.81187 11.1054 5.55752 11.2929 5.36998C11.4804 5.18244 11.7348 5.07709 12 5.07709C12.2652 5.07709 12.5196 5.18244 12.7071 5.36998C12.8946 5.55752 13 5.81187 13 6.07709V11.0771H18C18.2652 11.0771 18.5196 11.1824 18.7071 11.37C18.8946 11.5575 19 11.8119 19 12.0771C19 12.3423 18.8946 12.5967 18.7071 12.7842C18.5196 12.9717 18.2652 13.0771 18 13.0771Z" fill="#06579C"/>
</svg>
